<svg xmlns="http://www.w3.org/2000/svg" viewBox="0 0 600 500"><defs><style>.cls-1{fill:#00c064;}.cls-2,.cls-3{fill:#fff;}.cls-3,.cls-4,.cls-5{stroke:#2f2c6b;stroke-miterlimit:10;stroke-width:7px;}.cls-3,.cls-4{stroke-linecap:round;}.cls-4,.cls-5{fill:none;}.cls-6{fill:#2f2c6b;}</style></defs><g id="Layer_4" data-name="Layer 4"><path class="cls-1" d="M278.11,430.25,112.25,264.39a28.53,28.53,0,0,1-5.1-33.45c41.75-79.41,135.26-153,211-174.16a28.63,28.63,0,0,1,28.26,7.6L505.87,228.71a28.55,28.55,0,0,1-5.37,44.1C433.88,314.23,367.06,364.4,321.27,427A28.51,28.51,0,0,1,278.11,430.25Z"/><path class="cls-2" d="M186.4,464l43.13-46.9s56.16-18.09,75.94-39.6l89.76-97.59-.41-5.58c-.84-11.27-12.44-25.25-22.18-21.67l-6.27.71,12.51-13.61a6,6,0,0,0,1.47-5.25h0a13.26,13.26,0,0,0-.21-8.17c-4-10.89-13.57-17.66-25.74-17.88h0l5.11-5.55A11.42,11.42,0,0,0,362,191.59h0a25.64,25.64,0,0,0-19-17l-5.65-1.2L332,176.58c-2,2.13-4.25,2.31-4.86-.52h0c-2.5-11.66-13.16-25.49-24.38-21l-4.6-.28L206,255l.87-53.77-8.41-6.07c-7-4.47-18.44-.59-22.81,7.9l-5,4-20.59,65.33L143,322.53l-50.57,55S186.88,463.47,186.4,464Z"/><path class="cls-3" d="M188.42,461.61s32.48-35,40.33-43.74a9.7,9.7,0,0,1,4.31-2.77c19.41-6.3,36.89-15.8,49.63-23.81a158.79,158.79,0,0,0,32.24-26.93l73.8-80.24h0a19.56,19.56,0,0,0-28.1-27.2l-.16.18-.53.55-.49.56-.18.19"/><path class="cls-3" d="M313.81,307.79,375.25,241l-.06.06a19.55,19.55,0,0,0-28.78-26.47"/><line class="cls-3" x1="256.25" y1="254.85" x2="320" y2="185.53"/><path class="cls-3" d="M260.87,249.83l64.91-70.57h0l.33-.36a19.56,19.56,0,0,1,28.52,26.78l-.06.07.08-.1L285,281.33"/><path class="cls-4" d="M320,185.54a19.55,19.55,0,0,0-28.77-26.49h0L203.26,254.7,208,210.12s-.25-14.7-15.05-17.17-20.43,10.86-25.54,27.76S141.17,282,143.14,323.18c-14.64,16.19-48.22,52.44-48.22,52.44"/><circle class="cls-5" cx="445.28" cy="430.61" r="18.66"/><path class="cls-3" d="M429.38,82.55l11.79,34.73a2.93,2.93,0,0,0,1.82,1.83l34.74,11.79a2.91,2.91,0,0,1,0,5.52L443,148.21a2.93,2.93,0,0,0-1.82,1.83l-11.79,34.73a2.92,2.92,0,0,1-5.53,0L412.06,150a2.91,2.91,0,0,0-1.82-1.83L375.5,136.42a2.91,2.91,0,0,1,0-5.52l34.74-11.79a2.91,2.91,0,0,0,1.82-1.83l11.79-34.73A2.92,2.92,0,0,1,429.38,82.55Z"/><line class="cls-3" x1="126.63" y1="110.27" x2="126.63" y2="89.13"/><line class="cls-3" x1="162.61" y1="74.29" x2="141.47" y2="74.29"/><line class="cls-3" x1="126.63" y1="38.31" x2="126.63" y2="59.45"/><line class="cls-3" x1="90.65" y1="74.29" x2="111.79" y2="74.29"/><circle class="cls-6" cx="476.07" cy="341.36" r="8.1"/></g></svg>